<svg data-v-423bf9ae="" xmlns="http://www.w3.org/2000/svg" viewBox="0 0 371 90" class="iconLeft"><!----><!----><!----><g data-v-423bf9ae="" id="816f467e-1066-42ac-b7c7-33d7d475061a" fill="black" transform="matrix(4.354136212645278,0,0,4.354136212645278,64.36360168292322,2.3294644395766255)"><path d="M0.49 13.30L7.76 13.30L7.92 10.79L7.50 10.79C7.22 12.63 6.45 12.81 4.98 12.81C4.28 12.81 3.78 12.78 3.49 12.67C3.19 12.54 3.14 12.31 3.14 11.62L3.14 4.91C3.14 4.13 3.18 4.10 4.48 4.02L4.48 3.61L0.49 3.61L0.49 4.02C1.72 4.10 1.75 4.13 1.75 4.91L1.75 12.00C1.75 12.78 1.72 12.81 0.49 12.89ZM8.64 11.48C8.64 12.53 9.34 13.47 10.65 13.47C11.47 13.47 12.29 12.92 12.74 12.63C12.94 13.15 13.16 13.47 13.65 13.47C14.17 13.47 14.77 13.31 15.30 13.05L15.22 12.71C15.02 12.75 14.71 12.78 14.50 12.73C14.25 12.67 14.01 12.40 14.01 11.52L14.01 8.13C14.01 7.32 13.83 6.27 11.72 6.27C10.14 6.27 8.89 7.10 8.89 7.87C8.89 8.32 9.41 8.53 9.67 8.53C9.97 8.53 10.05 8.37 10.12 8.13C10.43 7.10 11.00 6.76 11.56 6.76C12.11 6.76 12.75 7.04 12.75 8.16L12.75 8.75C12.40 9.11 11.05 9.46 9.94 9.81C8.93 10.12 8.64 10.82 8.64 11.48ZM10.05 11.28C10.05 10.63 10.36 10.29 11.14 10.00C11.70 9.79 12.45 9.52 12.75 9.32L12.75 11.30C12.75 12.43 11.89 12.73 11.34 12.73C10.47 12.73 10.05 12.11 10.05 11.28ZM15.54 13.09L15.65 13.30L21.60 13.30L21.74 11.16L21.31 11.16C21.08 12.47 20.61 12.81 19.05 12.81L17.25 12.81C18.66 10.75 20.13 8.69 21.62 6.64L21.50 6.44L16.13 6.44L16.13 8.51L16.56 8.51C16.74 7.22 17.04 6.93 18.55 6.93L19.95 6.93C18.51 8.99 17.04 11.03 15.54 13.09ZM21.92 6.85C22.60 6.87 22.74 6.96 22.99 7.57C23.69 9.25 24.85 12.24 25.19 13.20C25.27 13.44 25.30 13.65 25.30 13.89C25.30 14.21 25.17 14.63 24.96 15.08C24.75 15.54 24.50 15.67 24.35 15.67C24.21 15.67 24.08 15.62 23.83 15.37C23.69 15.25 23.58 15.18 23.41 15.18C23.14 15.18 22.79 15.55 22.79 15.96C22.79 16.30 23.18 16.69 23.77 16.69C24.33 16.69 25.05 16.52 25.76 14.45C26.63 11.96 27.92 8.54 28.35 7.56C28.60 7.00 28.69 6.89 29.39 6.85L29.39 6.44L26.70 6.44L26.70 6.85L27.43 6.92C27.66 6.94 27.69 7.11 27.62 7.39C27.41 8.23 26.68 10.35 26.07 12.03L26.04 12.03C25.40 10.33 24.84 8.81 24.32 7.34C24.23 7.08 24.21 6.93 24.53 6.90L25.13 6.85L25.13 6.44L21.92 6.44ZM32.72 13.30L37.06 13.30C39.19 13.30 40.56 12.53 40.56 10.58C40.56 8.93 39.38 8.20 38.02 8.02L38.02 7.99C39.34 7.73 40.11 6.92 40.11 5.84C40.11 5.07 39.80 4.49 39.24 4.12C38.70 3.75 37.88 3.61 36.76 3.61L32.72 3.61L32.72 4.02C33.95 4.10 33.98 4.13 33.98 4.91L33.98 12.00C33.98 12.78 33.95 12.81 32.72 12.89ZM35.36 11.73L35.36 8.33L36.37 8.33C38.11 8.33 39.06 9.20 39.06 10.68C39.06 12.36 37.91 12.81 36.71 12.81C35.59 12.81 35.36 12.60 35.36 11.73ZM35.36 7.84L35.36 4.80C35.36 4.20 35.41 4.10 36.50 4.10C37.52 4.10 38.64 4.48 38.64 5.92C38.64 7.29 37.76 7.84 36.30 7.84ZM41.87 9.87C41.87 12.14 42.98 13.47 45.23 13.47C47.49 13.47 48.59 12.14 48.59 9.87C48.59 7.60 47.49 6.27 45.23 6.27C42.98 6.27 41.87 7.60 41.87 9.87ZM43.33 9.87C43.33 7.94 43.95 6.76 45.23 6.76C46.52 6.76 47.14 7.94 47.14 9.87C47.14 11.80 46.52 12.98 45.23 12.98C43.95 12.98 43.33 11.80 43.33 9.87ZM49.95 9.87C49.95 12.14 51.06 13.47 53.31 13.47C55.57 13.47 56.67 12.14 56.67 9.87C56.67 7.60 55.57 6.27 53.31 6.27C51.06 6.27 49.95 7.60 49.95 9.87ZM51.41 9.87C51.41 7.94 52.02 6.76 53.31 6.76C54.60 6.76 55.22 7.94 55.22 9.87C55.22 11.80 54.60 12.98 53.31 12.98C52.02 12.98 51.41 11.80 51.41 9.87ZM57.62 13.30L61.04 13.30L61.04 12.89C60.05 12.82 59.99 12.80 59.99 12.08L59.99 9.74L60.02 9.74C60.59 10.65 61.59 11.87 62.31 12.61C62.83 13.13 63.38 13.30 63.83 13.33L64.88 13.37L64.88 12.98C64.46 12.87 64.11 12.66 63.67 12.22C62.80 11.37 61.71 10.04 61.18 9.28C61.11 9.18 61.08 9.11 61.22 8.96C61.89 8.19 62.34 7.78 62.82 7.43C63.29 7.08 63.64 6.92 64.46 6.83L64.46 6.44L63.01 6.44C62.54 6.44 62.41 6.51 62.13 6.85C61.73 7.34 60.34 9.07 60.02 9.55L59.99 9.55L59.99 3.00L59.89 2.91L57.69 3.26L57.69 3.61L58.23 3.67C58.59 3.71 58.67 3.78 58.67 4.31L58.67 12.08C58.67 12.80 58.63 12.82 57.62 12.89ZM65.34 10.96L65.48 12.80C65.98 13.24 66.84 13.47 67.66 13.47C69.33 13.47 70.28 12.59 70.28 11.40C70.28 10.16 69.52 9.60 68.08 9.16C67.51 8.97 66.58 8.68 66.58 7.90C66.58 7.17 67.14 6.76 67.84 6.76C68.84 6.76 69.31 7.53 69.41 8.39L69.82 8.39L69.82 6.75C69.36 6.41 68.64 6.27 68.01 6.27C66.50 6.27 65.46 6.99 65.46 8.32C65.46 9.48 66.42 10.00 67.58 10.35C68.21 10.54 69.09 10.86 69.09 11.82C69.09 12.53 68.53 12.98 67.79 12.98C66.65 12.98 66.02 12.15 65.74 10.96Z"></path></g><!----><g data-v-423bf9ae="" id="1e1f31ea-7c87-4998-8fb1-17bd33263f86" transform="matrix(1.0028290768813692,0,0,1.0028290768813692,-26.323916538979795,-5.014505487515073)" stroke="none" fill="black"><path d="M71.985 31.093c-5.203-5.132-10.487-10.264-15.69-15.396-3.385-3.339-6.678-6.678-10.062-10.017C45.026 4.489 43 5.349 43 7.057v5.774c0 .036-.125.065-.123.1-2.178 1.789-5.086 3.165-7.848 2.598-1.023-1.094-2.081-2.188-3.104-3.281-.646-.691-1.31-1.382-1.957-2.073-1.174-1.255-3.338-.282-3.333 1.377.042 14.938.081 29.878.124 44.816l.018 7.346c.005 1.648 1.363 2.642 2.423 3.762l18.063 19.08c1.384 1.462 2.729 2.973 4.161 4.39 3.574 3.541 9.338 4.629 14.113 3.5C68.905 93.649 73 89.574 73 86.039v-8.104-42.604c0-1.588.071-3.166-1.015-4.238zm-14.188-8.052c2.959 2.92 6.076 5.84 9.037 8.76.572.566.837 1.131 1.411 1.697.042.214-.245.428-.245.642v.078c0 .773.114 1.529-.263 2.205-.754 1.348-2.077 2.251-3.833 2.712 1.104-.757 2.124-1.828 2.751-3.33 1.073-2.568-.46-3.613-2.182-5.335C58.404 24.401 52 18.332 46 12.263v-.549c4 3.775 7.97 7.551 11.797 11.327zM38.058 18.43c.03.039.058.079.095.116l16.924 16.923c1.025 1.025 2.614-.563 1.589-1.589L40.51 17.726a15.001 15.001 0 0 0 1.59-.758l17.207 17.207c1.026 1.026 2.615-.563 1.59-1.589L44.033 15.722c.346-.258.681-.531 1.006-.812l14.875 14.875 3.509 3.509.75.75c-.509 3.818-5.431 3.913-8.713 3.394l-5.546-5.929L37.732 18.49c.109-.016.216-.041.326-.06zM68 86.039c0 1.252-.181 1.424-1.138 2.587-2.568 3.12-6.976 2.842-10.343 1.268-1.889-.884-3.001-2.292-4.394-3.764-2.835-2.995-5.621-5.989-8.456-8.983-4.351-4.594-8.676-9.188-13.024-13.781-.003-.727.008-1.453.006-2.179-.009-3.209-.013-6.42-.022-9.629l-.096-35.06 10.514 11.236 8.893 9.503c1.2 1.283 1.942 2.758 3.373 3.798C57.721 44.238 64 43.854 68 41.027v45.012z"></path><path d="M53 44v41c0 1 3 1 3 0V44c0-2-3-2-3 0z"></path></g><!----></svg>